<svg width="44" height="44" viewBox="0 0 44 44" fill="none" xmlns="http://www.w3.org/2000/svg">
<path d="M31.5606 17.2276L26.7727 12.4394C26.6334 12.3001 26.468 12.1896 26.2861 12.1142C26.1041 12.0388 25.909 12 25.712 12C25.515 12 25.32 12.0388 25.138 12.1142C24.956 12.1896 24.7907 12.3001 24.6514 12.4394L11.4393 25.6511C11.2997 25.7902 11.189 25.9555 11.1136 26.1376C11.0383 26.3196 10.9996 26.5148 11 26.7118V31.5C11 31.8978 11.158 32.2794 11.4393 32.5607C11.7206 32.842 12.1021 33 12.4999 33H30.4989C30.6694 33 30.8329 32.9323 30.9534 32.8117C31.074 32.6912 31.1417 32.5276 31.1417 32.3571C31.1417 32.1867 31.074 32.0231 30.9534 31.9026C30.8329 31.782 30.6694 31.7143 30.4989 31.7143H19.1949L31.5606 19.349C31.6999 19.2097 31.8104 19.0443 31.8858 18.8623C31.9612 18.6803 32 18.4853 32 18.2883C32 18.0913 31.9612 17.8962 31.8858 17.7142C31.8104 17.5322 31.6999 17.3669 31.5606 17.2276ZM17.3768 31.7143H12.4999C12.4431 31.7143 12.3886 31.6917 12.3484 31.6515C12.3082 31.6113 12.2856 31.5568 12.2856 31.5V26.7118C12.2859 26.6551 12.3086 26.6007 12.3489 26.5607L21.928 16.9812L27.0191 22.0715L17.3768 31.7143ZM30.651 18.4394L27.9276 21.1629L22.8376 16.0715L25.5599 13.349C25.5798 13.3291 25.6034 13.3133 25.6294 13.3025C25.6555 13.2917 25.6833 13.2862 25.7115 13.2862C25.7397 13.2862 25.7675 13.2917 25.7935 13.3025C25.8196 13.3133 25.8432 13.3291 25.8631 13.349L30.651 18.1361C30.671 18.156 30.6868 18.1797 30.6975 18.2057C30.7083 18.2317 30.7139 18.2596 30.7139 18.2878C30.7139 18.3159 30.7083 18.3438 30.6975 18.3698C30.6868 18.3958 30.671 18.4195 30.651 18.4394Z" fill="#6956E5"/>
</svg>
