<svg width="24" height="25" viewBox="0 0 24 25" fill="none" xmlns="http://www.w3.org/2000/svg">
<path d="M12.832 22.3009C15.958 21.6749 20 19.4259 20 13.6109C20 8.31993 16.127 4.79593 13.342 3.17693C12.723 2.81693 12 3.28993 12 4.00493V5.83293C12 7.27493 11.394 9.90693 9.71 11.0019C8.85 11.5609 7.92 10.7239 7.816 9.70393L7.73 8.86593C7.63 7.89193 6.638 7.30093 5.86 7.89493C4.461 8.95993 3 10.8299 3 13.6099C3 20.7209 8.289 22.4999 10.933 22.4999C11.0877 22.4999 11.249 22.4949 11.417 22.4849C10.111 22.3739 8 21.5639 8 18.9439C8 16.8939 9.495 15.5089 10.631 14.8339C10.937 14.6539 11.294 14.8889 11.294 15.2439V15.8339C11.294 16.2839 11.469 16.9889 11.884 17.4709C12.354 18.0169 13.043 17.4449 13.098 16.7269C13.116 16.5009 13.344 16.3569 13.54 16.4709C14.181 16.8459 15 17.6459 15 18.9439C15 20.9919 13.871 21.9339 12.832 22.3009Z" fill="#878787"/>
</svg>
