<svg width="10" height="11" viewBox="0 0 10 11" fill="none" xmlns="http://www.w3.org/2000/svg">
<path d="M7.65484 3.00618V2.9322C7.65484 2.61232 7.52777 2.30553 7.30158 2.07934C7.07539 1.85315 6.7686 1.72607 6.44872 1.72607C6.12883 1.72607 5.82205 1.85315 5.59586 2.07934C5.36966 2.30553 5.24259 2.61232 5.24259 2.9322H4.43851C4.43851 2.61232 4.31143 2.30553 4.08524 2.07934C3.85905 1.85315 3.55226 1.72607 3.23238 1.72607C2.91249 1.72607 2.60571 1.85315 2.37952 2.07934C2.15333 2.30553 2.02625 2.61232 2.02625 2.9322V3.00618C1.7919 3.08903 1.58887 3.24227 1.44493 3.44493C1.301 3.64758 1.2232 3.88976 1.22217 4.13833V7.75671C1.22217 8.42169 1.76332 8.96283 2.42829 8.96283H7.2528C7.91778 8.96283 8.45893 8.42169 8.45893 7.75671V4.13833C8.4579 3.88976 8.38009 3.64758 8.23616 3.44493C8.09223 3.24227 7.8892 3.08903 7.65484 3.00618ZM6.04667 2.9322C6.04667 2.82557 6.08903 2.72331 6.16443 2.64791C6.23983 2.57252 6.34209 2.53016 6.44872 2.53016C6.55535 2.53016 6.65761 2.57252 6.733 2.64791C6.8084 2.72331 6.85076 2.82557 6.85076 2.9322V3.73629C6.85076 3.84291 6.8084 3.94517 6.733 4.02057C6.65761 4.09597 6.55535 4.13833 6.44872 4.13833C6.34209 4.13833 6.23983 4.09597 6.16443 4.02057C6.08903 3.94517 6.04667 3.84291 6.04667 3.73629V2.9322ZM2.83034 2.9322C2.83034 2.82557 2.87269 2.72331 2.94809 2.64791C3.02349 2.57252 3.12575 2.53016 3.23238 2.53016C3.33901 2.53016 3.44127 2.57252 3.51667 2.64791C3.59206 2.72331 3.63442 2.82557 3.63442 2.9322V3.73629C3.63442 3.84291 3.59206 3.94517 3.51667 4.02057C3.44127 4.09597 3.33901 4.13833 3.23238 4.13833C3.12575 4.13833 3.02349 4.09597 2.94809 4.02057C2.87269 3.94517 2.83034 3.84291 2.83034 3.73629V2.9322ZM7.65484 7.75671C7.65484 7.97823 7.47473 8.15875 7.2528 8.15875H2.42829C2.20637 8.15875 2.02625 7.97823 2.02625 7.75671V5.34445H7.65484V7.75671Z" fill="black"/>
</svg>
