<svg width="20" height="25" viewBox="0 0 20 25" fill="none" xmlns="http://www.w3.org/2000/svg">
<path d="M8 1.5V11.5L11 9.5L14 11.5V1.5M3.5 18.5C2.83696 18.5 2.20107 18.7634 1.73223 19.2322C1.26339 19.7011 1 20.337 1 21M1 21C1 21.663 1.26339 22.2989 1.73223 22.7678C2.20107 23.2366 2.83696 23.5 3.5 23.5H20M1 21V4C1 3.33696 1.26339 2.70107 1.73223 2.23223C2.20107 1.76339 2.83696 1.5 3.5 1.5H19V18.507H3.492M18.5 18.5C17.837 18.5 17.2011 18.7634 16.7322 19.2322C16.2634 19.7011 16 20.337 16 21C16 21.663 16.2634 22.2989 16.7322 22.7678C17.2011 23.2366 17.837 23.5 18.5 23.5" stroke="#878787" stroke-width="2"/>
</svg>
