<svg width="27" height="30" viewBox="0 0 27 30" fill="none" xmlns="http://www.w3.org/2000/svg">
<g id="User">
<g id="Group">
<path id="Vector" d="M1.46872 28.75V27.0312C1.46872 25.4513 1.77992 23.8868 2.38454 22.4271C2.98917 20.9674 3.87539 19.6411 4.99259 18.5239C6.1098 17.4067 7.43611 16.5205 8.89581 15.9158C10.3555 15.3112 11.92 15 13.5 15C15.0799 15 16.6444 15.3112 18.1041 15.9158C19.5638 16.5205 20.8901 17.4067 22.0073 18.5239C23.1246 19.6411 24.0108 20.9674 24.6154 22.4271C25.22 23.8868 25.5312 25.4513 25.5312 27.0312V28.75" stroke="#5D5A88" stroke-width="2" stroke-linecap="round" stroke-linejoin="round"/>
<path id="Vector_2" d="M13.4998 15C15.3232 15 17.0719 14.2757 18.3612 12.9864C19.6505 11.697 20.3748 9.94836 20.3748 8.125C20.3748 6.30164 19.6505 4.55295 18.3612 3.26364C17.0719 1.97433 15.3232 1.25 13.4998 1.25C11.6765 1.25 9.92777 1.97433 8.63846 3.26364C7.34914 4.55295 6.62482 6.30164 6.62482 8.125C6.62482 9.94836 7.34914 11.697 8.63846 12.9864C9.92777 14.2757 11.6765 15 13.4998 15V15Z" stroke="#5D5A88" stroke-width="2" stroke-linecap="round" stroke-linejoin="round"/>
</g>
</g>
</svg>
